<svg width="31" height="31" viewBox="0 0 31 31" fill="none" xmlns="http://www.w3.org/2000/svg">
<path d="M23.3398 3.14844H29.3398C29.7377 3.14844 30.1192 3.30647 30.4005 3.58778C30.6818 3.86908 30.8398 4.25061 30.8398 4.64844V28.6484C30.8398 29.0463 30.6818 29.4278 30.4005 29.7091C30.1192 29.9904 29.7377 30.1484 29.3398 30.1484H2.33984C1.94202 30.1484 1.56049 29.9904 1.27918 29.7091C0.997879 29.4278 0.839844 29.0463 0.839844 28.6484V4.64844C0.839844 4.25061 0.997879 3.86908 1.27918 3.58778C1.56049 3.30647 1.94202 3.14844 2.33984 3.14844H8.33984V0.148438H11.3398V3.14844H20.3398V0.148438H23.3398V3.14844ZM27.8398 15.1484H3.83984V27.1484H27.8398V15.1484ZM20.3398 6.14844H11.3398V9.14844H8.33984V6.14844H3.83984V12.1484H27.8398V6.14844H23.3398V9.14844H20.3398V6.14844ZM6.83984 18.1484H9.83984V21.1484H6.83984V18.1484ZM14.3398 18.1484H17.3398V21.1484H14.3398V18.1484ZM21.8398 18.1484H24.8398V21.1484H21.8398V18.1484Z" fill="#FA8F21"/>
</svg>
