<svg width="33" height="33" viewBox="0 0 33 33" fill="none" xmlns="http://www.w3.org/2000/svg">
<path d="M5.84009 7.62124L0.975586 2.75824L3.09809 0.635742L7.96109 5.50024H30.8241C31.0579 5.50023 31.2885 5.55486 31.4974 5.65979C31.7063 5.76472 31.8878 5.91704 32.0274 6.10459C32.167 6.29213 32.2609 6.50972 32.3014 6.73997C32.342 6.97023 32.3282 7.20678 32.2611 7.43074L28.6611 19.4307C28.5685 19.7399 28.3786 20.0109 28.1198 20.2036C27.8609 20.3962 27.5468 20.5003 27.2241 20.5002H8.84009V23.5002H25.3401V26.5002H7.34009C6.94226 26.5002 6.56073 26.3422 6.27943 26.0609C5.99812 25.7796 5.84009 25.3981 5.84009 25.0002V7.62124ZM8.84009 8.50024V17.5002H26.1081L28.8081 8.50024H8.84009ZM8.09009 32.5002C7.49335 32.5002 6.92105 32.2632 6.4991 31.8412C6.07714 31.4193 5.84009 30.847 5.84009 30.2502C5.84009 29.6535 6.07714 29.0812 6.4991 28.6593C6.92105 28.2373 7.49335 28.0002 8.09009 28.0002C8.68682 28.0002 9.25912 28.2373 9.68108 28.6593C10.103 29.0812 10.3401 29.6535 10.3401 30.2502C10.3401 30.847 10.103 31.4193 9.68108 31.8412C9.25912 32.2632 8.68682 32.5002 8.09009 32.5002ZM26.0901 32.5002C25.4933 32.5002 24.9211 32.2632 24.4991 31.8412C24.0771 31.4193 23.8401 30.847 23.8401 30.2502C23.8401 29.6535 24.0771 29.0812 24.4991 28.6593C24.9211 28.2373 25.4933 28.0002 26.0901 28.0002C26.6868 28.0002 27.2591 28.2373 27.6811 28.6593C28.103 29.0812 28.3401 29.6535 28.3401 30.2502C28.3401 30.847 28.103 31.4193 27.6811 31.8412C27.2591 32.2632 26.6868 32.5002 26.0901 32.5002Z" fill="#FA8F21"/>
</svg>
