<svg width="20" height="18" viewBox="0 0 20 18" fill="none" xmlns="http://www.w3.org/2000/svg">
<path d="M1 0H19C19.2652 0 19.5196 0.105357 19.7071 0.292893C19.8946 0.48043 20 0.734784 20 1V17C20 17.2652 19.8946 17.5196 19.7071 17.7071C19.5196 17.8946 19.2652 18 19 18H1C0.734784 18 0.48043 17.8946 0.292893 17.7071C0.105357 17.5196 0 17.2652 0 17V1C0 0.734784 0.105357 0.48043 0.292893 0.292893C0.48043 0.105357 0.734784 0 1 0ZM7 10V12H6V14H14V12H9V10H12V8H9V7C8.99976 6.67611 9.10436 6.36084 9.29816 6.10133C9.49197 5.84182 9.76457 5.65201 10.0752 5.56029C10.3858 5.46856 10.7178 5.47984 11.0215 5.59245C11.3252 5.70505 11.5843 5.91293 11.76 6.185L13.746 5.689C13.4412 4.9363 12.8842 4.31297 12.1703 3.92576C11.4565 3.53854 10.6303 3.41152 9.83312 3.56644C9.03595 3.72136 8.31743 4.14858 7.80059 4.77496C7.28374 5.40134 7.00073 6.18792 7 7V8H6V10H7Z" fill="#2695C5"/>
</svg>
