<svg width="37" height="36" viewBox="0 0 37 36" fill="none" xmlns="http://www.w3.org/2000/svg">
<g clip-path="url(#clip0_1303_2642)">
<path fill-rule="evenodd" clip-rule="evenodd" d="M18.0438 5.95356C18.1483 5.84879 18.2724 5.76567 18.4091 5.70895C18.5458 5.65224 18.6923 5.62305 18.8403 5.62305C18.9883 5.62305 19.1348 5.65224 19.2715 5.70895C19.4081 5.76567 19.5323 5.84879 19.6368 5.95356L33.1368 19.4536C33.348 19.6648 33.4667 19.9513 33.4667 20.2501C33.4667 20.5488 33.348 20.8353 33.1368 21.0466C32.9255 21.2578 32.639 21.3765 32.3403 21.3765C32.0415 21.3765 31.755 21.2578 31.5438 21.0466L18.8403 8.34081L6.13679 21.0466C5.92554 21.2578 5.63903 21.3765 5.34029 21.3765C5.04154 21.3765 4.75503 21.2578 4.54379 21.0466C4.33254 20.8353 4.21387 20.5488 4.21387 20.2501C4.21387 19.9513 4.33254 19.6648 4.54379 19.4536L18.0438 5.95356Z" fill="#FA8F21"/>
<path fill-rule="evenodd" clip-rule="evenodd" d="M18.0438 14.9536C18.1483 14.8488 18.2724 14.7657 18.4091 14.709C18.5458 14.6522 18.6923 14.623 18.8403 14.623C18.9883 14.623 19.1348 14.6522 19.2715 14.709C19.4081 14.7657 19.5323 14.8488 19.6368 14.9536L33.1368 28.4536C33.348 28.6648 33.4667 28.9513 33.4667 29.2501C33.4667 29.5488 33.348 29.8353 33.1368 30.0466C32.9255 30.2578 32.639 30.3765 32.3403 30.3765C32.0415 30.3765 31.755 30.2578 31.5438 30.0466L18.8403 17.3408L6.13679 30.0466C5.92554 30.2578 5.63903 30.3765 5.34029 30.3765C5.04154 30.3765 4.75503 30.2578 4.54379 30.0466C4.33254 29.8353 4.21387 29.5488 4.21387 29.2501C4.21387 28.9513 4.33254 28.6648 4.54379 28.4536L18.0438 14.9536Z" fill="#FA8F21"/>
</g>
<defs>
<clipPath id="clip0_1303_2642">
<rect width="36" height="36" fill="white" transform="translate(0.839844)"/>
</clipPath>
</defs>
</svg>
