<svg width="16" height="21" viewBox="0 0 16 21" fill="none" xmlns="http://www.w3.org/2000/svg">
<path d="M8 5.00539C10.1217 5.00539 12.1566 5.84825 13.6569 7.34854C15.1571 8.84883 16 10.8837 16 13.0054C16 15.1271 15.1571 17.162 13.6569 18.6622C12.1566 20.1625 10.1217 21.0054 8 21.0054C5.87827 21.0054 3.84344 20.1625 2.34315 18.6622C0.842855 17.162 0 15.1271 0 13.0054C0 10.8837 0.842855 8.84883 2.34315 7.34854C3.84344 5.84825 5.87827 5.00539 8 5.00539ZM8 8.50539L6.677 11.1854L3.72 11.6154L5.86 13.7004L5.355 16.6464L8 15.2554L10.645 16.6454L10.14 13.7004L12.28 11.6144L9.323 11.1844L8 8.50539ZM9 0.00439453L14 0.00539458V3.00539L12.637 4.14339C11.5059 3.54998 10.2711 3.18023 9 3.05439V0.00539458V0.00439453ZM7 0.00439453V3.05439C5.72935 3.18004 4.49482 3.54945 3.364 4.14239L2 3.00539V0.00539458L7 0.00439453Z" fill="#FA8F21"/>
</svg>
