<svg width="35" height="33" viewBox="0 0 35 33" fill="none" xmlns="http://www.w3.org/2000/svg">
<path d="M17.68 0.398438L24.019 9.67294L34.7995 12.8364L27.937 21.7314L28.2595 32.9604L17.68 29.1834L7.10055 32.9604L7.42305 21.7314L0.560547 12.8364L11.341 9.67294L17.68 0.398438ZM17.68 5.71444L13.213 12.2514L5.61555 14.4789L10.453 20.7459L10.2235 28.6584L17.68 25.9974L25.135 28.6584L24.907 20.7459L29.743 14.4789L22.147 12.2514L17.68 5.71444ZM14.68 17.6484C14.68 18.4441 14.9961 19.2071 15.5587 19.7698C16.1213 20.3324 16.8844 20.6484 17.68 20.6484C18.4757 20.6484 19.2388 20.3324 19.8014 19.7698C20.364 19.2071 20.68 18.4441 20.68 17.6484H23.68C23.68 19.2397 23.0479 20.7659 21.9227 21.8911C20.7975 23.0163 19.2713 23.6484 17.68 23.6484C16.0887 23.6484 14.5626 23.0163 13.4374 21.8911C12.3122 20.7659 11.68 19.2397 11.68 17.6484H14.68Z" fill="#FA8F21"/>
</svg>
