<svg width="36" height="37" viewBox="0 0 36 37" fill="none" xmlns="http://www.w3.org/2000/svg">
<path fill-rule="evenodd" clip-rule="evenodd" d="M0 0.307617H2.25V34.0576H36V36.3076H0V0.307617ZM22.5 8.18262C22.5 7.88425 22.6185 7.5981 22.8295 7.38712C23.0405 7.17614 23.3266 7.05762 23.625 7.05762H32.625C32.9234 7.05762 33.2095 7.17614 33.4205 7.38712C33.6315 7.5981 33.75 7.88425 33.75 8.18262V17.1826C33.75 17.481 33.6315 17.7671 33.4205 17.9781C33.2095 18.1891 32.9234 18.3076 32.625 18.3076C32.3266 18.3076 32.0405 18.1891 31.8295 17.9781C31.6185 17.7671 31.5 17.481 31.5 17.1826V11.3326L23.3708 21.2709C23.2712 21.3923 23.1474 21.4916 23.0072 21.5623C22.867 21.6331 22.7135 21.6737 22.5567 21.6815C22.3999 21.6893 22.2431 21.6643 22.0966 21.6079C21.95 21.5515 21.8169 21.4651 21.7058 21.3541L15.885 15.5334L7.659 26.8441C7.47905 27.0729 7.21741 27.2231 6.92906 27.263C6.64072 27.303 6.34811 27.2296 6.11274 27.0583C5.87736 26.887 5.71755 26.6312 5.66687 26.3445C5.6162 26.0579 5.67861 25.7627 5.841 25.5211L14.841 13.1461C14.9365 13.0145 15.0594 12.9052 15.2013 12.8257C15.3431 12.7462 15.5005 12.6984 15.6626 12.6855C15.8247 12.6727 15.9877 12.6952 16.1403 12.7514C16.2929 12.8076 16.4315 12.8962 16.5465 13.0111L22.4167 18.8836L30.2512 9.30762H23.625C23.3266 9.30762 23.0405 9.18909 22.8295 8.97811C22.6185 8.76713 22.5 8.48099 22.5 8.18262Z" fill="#FA8F21"/>
</svg>
